<svg id="Camada_1" data-name="Camada 1" xmlns="http://www.w3.org/2000/svg" viewBox="0 0 325 260"><defs><style>.cls-1{fill:#5c2c1b;}.cls-2{fill:#793c26;}.cls-3{fill:#572a1b;}.cls-4{fill:#452116;}.cls-5{fill:#a8804c;}.cls-6{fill:#88683e;}.cls-7{fill:#878787;}.cls-8{fill:#646464;}</style></defs><title>icon_talhao_meu_talhao</title><polygon class="cls-1" points="127.5 96.46 162.5 116.67 162.5 104.59 159.51 97.57 134.04 82.35 127.5 84.38 127.5 96.46"/><path class="cls-2" d="M127.5,84.38l1.43-.36a9.15,9.15,0,0,1,6.79.94l20.82,12a9.11,9.11,0,0,1,3.2,3.12l2.76,4.49,35-20.21-2.76-4.49a9.22,9.22,0,0,0-3.21-3.12l-20.81-12a9.07,9.07,0,0,0-6.74-1l-1.48.37Z"/><polygon class="cls-3" points="127.5 84.38 128.93 84.02 163.98 63.81 162.5 64.18 127.5 84.38"/><polygon class="cls-3" points="159.74 100.1 162.5 104.59 197.5 84.38 194.74 79.89 159.74 100.1"/><polygon class="cls-4" points="197.5 96.46 162.5 116.67 162.5 104.59 197.5 84.38 197.5 96.46"/><polygon class="cls-5" points="127.5 110.64 162.5 130.85 162.5 116.67 127.5 96.46 127.5 110.64"/><polygon class="cls-6" points="197.5 110.64 162.5 130.85 162.5 116.67 197.5 96.46 197.5 110.64"/><polygon class="cls-7" points="127.5 118.55 162.5 138.76 162.5 130.85 127.5 110.64 127.5 118.55"/><polygon class="cls-8" points="197.5 118.55 162.5 138.76 162.5 130.85 197.5 110.64 197.5 118.55"/><polygon class="cls-1" points="92.5 116.67 127.5 136.88 127.5 124.8 124.51 117.77 99.04 102.56 92.5 104.59 92.5 116.67"/><path class="cls-2" d="M92.5,104.59l1.43-.36a9.1,9.1,0,0,1,6.79.94l20.82,12a9.11,9.11,0,0,1,3.2,3.12l2.76,4.49,35-20.21-2.76-4.49A9.22,9.22,0,0,0,156.53,97L135.72,85A9.07,9.07,0,0,0,129,84l-1.48.36Z"/><polygon class="cls-3" points="92.5 104.59 93.93 104.23 128.98 84.02 127.5 84.38 92.5 104.59"/><polygon class="cls-3" points="124.74 120.31 127.5 124.8 162.5 104.59 159.74 100.1 124.74 120.31"/><polygon class="cls-4" points="162.5 116.67 127.5 136.88 127.5 124.8 162.5 104.59 162.5 116.67"/><polygon class="cls-5" points="92.5 130.85 127.5 151.05 127.5 136.88 92.5 116.67 92.5 130.85"/><polygon class="cls-6" points="162.5 130.85 127.5 151.05 127.5 136.88 162.5 116.67 162.5 130.85"/><polygon class="cls-7" points="92.5 138.76 127.5 158.96 127.5 151.05 92.5 130.85 92.5 138.76"/><polygon class="cls-8" points="162.5 138.76 127.5 158.96 127.5 151.05 162.5 130.85 162.5 138.76"/><polygon class="cls-1" points="57.5 136.88 92.5 157.09 92.5 145 89.51 137.98 64.04 122.77 57.5 124.8 57.5 136.88"/><path class="cls-2" d="M57.5,124.8l1.43-.36a9.06,9.06,0,0,1,6.79.94l20.82,12a9,9,0,0,1,3.2,3.12L92.5,145l35-20.21-2.76-4.5a9.28,9.28,0,0,0-3.21-3.11l-20.81-12a9.17,9.17,0,0,0-6.74-1l-1.48.37Z"/><polygon class="cls-3" points="57.5 124.8 58.93 124.44 93.98 104.22 92.5 104.59 57.5 124.8"/><polygon class="cls-3" points="89.74 140.51 92.5 145 127.5 124.8 124.74 120.3 89.74 140.51"/><polygon class="cls-4" points="127.5 136.88 92.5 157.09 92.5 145 127.5 124.8 127.5 136.88"/><polygon class="cls-5" points="57.5 151.05 92.5 171.26 92.5 157.09 57.5 136.88 57.5 151.05"/><polygon class="cls-6" points="127.5 151.05 92.5 171.26 92.5 157.09 127.5 136.88 127.5 151.05"/><polygon class="cls-7" points="57.5 158.96 92.5 179.17 92.5 171.26 57.5 151.05 57.5 158.96"/><polygon class="cls-8" points="127.5 158.96 92.5 179.17 92.5 171.26 127.5 151.05 127.5 158.96"/><polygon class="cls-1" points="22.5 157.09 57.5 177.29 57.5 165.21 54.51 158.19 29.04 142.97 22.5 145 22.5 157.09"/><path class="cls-2" d="M22.5,145l1.43-.37a9.15,9.15,0,0,1,6.79.94l20.82,12a9,9,0,0,1,3.2,3.11l2.76,4.49,35-20.2-2.76-4.5a9.1,9.1,0,0,0-3.21-3.11l-20.81-12a9.07,9.07,0,0,0-6.74-.95l-1.48.37Z"/><polygon class="cls-3" points="22.5 145 23.93 144.64 58.98 124.43 57.5 124.8 22.5 145"/><polygon class="cls-3" points="54.74 160.72 57.5 165.21 92.5 145 89.74 140.51 54.74 160.72"/><polygon class="cls-4" points="92.5 157.09 57.5 177.29 57.5 165.21 92.5 145 92.5 157.09"/><polygon class="cls-5" points="22.5 171.26 57.5 191.47 57.5 177.29 22.5 157.09 22.5 171.26"/><polygon class="cls-6" points="92.5 171.26 57.5 191.47 57.5 177.29 92.5 157.09 92.5 171.26"/><polygon class="cls-7" points="22.5 179.17 57.5 199.38 57.5 191.47 22.5 171.26 22.5 179.17"/><polygon class="cls-8" points="92.5 179.17 57.5 199.38 57.5 191.47 92.5 171.26 92.5 179.17"/><polygon class="cls-1" points="162.51 116.67 197.51 136.88 197.51 124.8 194.52 117.78 169.04 102.56 162.51 104.59 162.51 116.67"/><path class="cls-2" d="M162.51,104.59l1.43-.36a9.13,9.13,0,0,1,6.78.94l20.82,12a9.22,9.22,0,0,1,3.21,3.12l2.76,4.49,35-20.21-2.77-4.49a9.11,9.11,0,0,0-3.2-3.12L205.73,85A9.09,9.09,0,0,0,199,84l-1.47.36Z"/><polygon class="cls-3" points="162.51 104.59 163.94 104.23 198.98 84.02 197.51 84.38 162.51 104.59"/><polygon class="cls-3" points="194.75 120.31 197.51 124.8 232.51 104.59 229.74 100.1 194.75 120.31"/><polygon class="cls-4" points="232.51 116.67 197.51 136.88 197.51 124.8 232.51 104.59 232.51 116.67"/><polygon class="cls-5" points="162.51 130.85 197.51 151.06 197.51 136.88 162.51 116.67 162.51 130.85"/><polygon class="cls-6" points="232.51 130.85 197.51 151.06 197.51 136.88 232.51 116.67 232.51 130.85"/><polygon class="cls-7" points="162.51 138.76 197.51 158.96 197.51 151.06 162.51 130.85 162.51 138.76"/><polygon class="cls-8" points="232.51 138.76 197.51 158.96 197.51 151.06 232.51 130.85 232.51 138.76"/><polygon class="cls-1" points="127.51 136.88 162.51 157.09 162.51 145.01 159.52 137.98 134.04 122.77 127.51 124.8 127.51 136.88"/><path class="cls-2" d="M127.51,124.8l1.43-.36a9,9,0,0,1,6.78.94l20.82,12a9.22,9.22,0,0,1,3.21,3.12l2.76,4.49,35-20.21-2.77-4.5a9.16,9.16,0,0,0-3.2-3.11l-20.81-12a9.14,9.14,0,0,0-6.75-1l-1.47.37Z"/><polygon class="cls-3" points="127.51 124.8 128.94 124.44 163.98 104.22 162.51 104.59 127.51 124.8"/><polygon class="cls-3" points="159.75 140.52 162.51 145.01 197.51 124.8 194.74 120.31 159.75 140.52"/><polygon class="cls-4" points="197.51 136.88 162.51 157.09 162.51 145.01 197.51 124.8 197.51 136.88"/><polygon class="cls-5" points="127.51 151.06 162.51 171.26 162.51 157.09 127.51 136.88 127.51 151.06"/><polygon class="cls-6" points="197.51 151.06 162.51 171.26 162.51 157.09 197.51 136.88 197.51 151.06"/><polygon class="cls-7" points="127.51 158.96 162.51 179.17 162.51 171.26 127.51 151.06 127.51 158.96"/><polygon class="cls-8" points="197.51 158.96 162.51 179.17 162.51 171.26 197.51 151.06 197.51 158.96"/><polygon class="cls-1" points="92.51 157.09 127.51 177.29 127.51 165.21 124.52 158.19 99.05 142.97 92.51 145.01 92.51 157.09"/><path class="cls-2" d="M92.51,145l1.43-.37a9.08,9.08,0,0,1,6.78,1l20.82,12a9.1,9.1,0,0,1,3.21,3.11l2.76,4.49,35-20.2-2.77-4.5a9,9,0,0,0-3.2-3.11l-20.81-12a9.09,9.09,0,0,0-6.75-.95l-1.47.37Z"/><polygon class="cls-3" points="92.51 145.01 93.94 144.64 128.98 124.43 127.51 124.8 92.51 145.01"/><polygon class="cls-3" points="124.75 160.72 127.51 165.21 162.51 145.01 159.74 140.51 124.75 160.72"/><polygon class="cls-4" points="162.51 157.09 127.51 177.29 127.51 165.21 162.51 145.01 162.51 157.09"/><polygon class="cls-5" points="92.51 171.26 127.51 191.47 127.51 177.29 92.51 157.09 92.51 171.26"/><polygon class="cls-6" points="162.51 171.26 127.51 191.47 127.51 177.29 162.51 157.09 162.51 171.26"/><polygon class="cls-7" points="92.51 179.17 127.51 199.38 127.51 191.47 92.51 171.26 92.51 179.17"/><polygon class="cls-8" points="162.51 179.17 127.51 199.38 127.51 191.47 162.51 171.26 162.51 179.17"/><polygon class="cls-1" points="57.51 177.29 92.51 197.5 92.51 185.42 89.52 178.4 64.05 163.18 57.51 165.21 57.51 177.29"/><path class="cls-2" d="M57.51,165.21l1.43-.36a9.12,9.12,0,0,1,6.78.94l20.82,12a9.22,9.22,0,0,1,3.21,3.12l2.76,4.49,35-20.21-2.77-4.49a9.11,9.11,0,0,0-3.2-3.12l-20.81-12a9.09,9.09,0,0,0-6.75-1l-1.47.37Z"/><polygon class="cls-3" points="57.51 165.21 58.94 164.85 93.98 144.64 92.51 145.01 57.51 165.21"/><polygon class="cls-3" points="89.75 180.93 92.51 185.42 127.51 165.21 124.74 160.72 89.75 180.93"/><polygon class="cls-4" points="127.51 177.29 92.51 197.5 92.51 185.42 127.51 165.21 127.51 177.29"/><polygon class="cls-5" points="57.51 191.47 92.51 211.68 92.51 197.5 57.51 177.29 57.51 191.47"/><polygon class="cls-6" points="127.51 191.47 92.51 211.68 92.51 197.5 127.51 177.29 127.51 191.47"/><polygon class="cls-7" points="57.51 199.38 92.51 219.59 92.51 211.68 57.51 191.47 57.51 199.38"/><polygon class="cls-8" points="127.51 199.38 92.51 219.59 92.51 211.68 127.51 191.47 127.51 199.38"/><polygon class="cls-1" points="197.5 136.88 232.5 157.09 232.5 145.01 229.51 137.98 204.04 122.77 197.5 124.8 197.5 136.88"/><path class="cls-2" d="M197.5,124.8l1.43-.36a9.06,9.06,0,0,1,6.79.94l20.82,12a9.11,9.11,0,0,1,3.2,3.12L232.5,145l35-20.21-2.76-4.5a9.16,9.16,0,0,0-3.2-3.11l-20.81-12a9.15,9.15,0,0,0-6.75-1l-1.48.37Z"/><polygon class="cls-3" points="197.5 124.8 198.93 124.44 233.98 104.22 232.5 104.59 197.5 124.8"/><polygon class="cls-3" points="229.74 140.52 232.5 145.01 267.5 124.8 264.74 120.31 229.74 140.52"/><polygon class="cls-4" points="267.5 136.88 232.5 157.09 232.5 145.01 267.5 124.8 267.5 136.88"/><polygon class="cls-5" points="197.5 151.06 232.5 171.26 232.5 157.09 197.5 136.88 197.5 151.06"/><polygon class="cls-6" points="267.5 151.06 232.5 171.26 232.5 157.09 267.5 136.88 267.5 151.06"/><polygon class="cls-7" points="197.5 158.96 232.5 179.17 232.5 171.26 197.5 151.06 197.5 158.96"/><polygon class="cls-8" points="267.5 158.96 232.5 179.17 232.5 171.26 267.5 151.06 267.5 158.96"/><polygon class="cls-1" points="162.5 157.09 197.5 177.29 197.5 165.21 194.51 158.19 169.04 142.97 162.5 145.01 162.5 157.09"/><path class="cls-2" d="M162.5,145l1.43-.37a9.15,9.15,0,0,1,6.79.94l20.82,12a9,9,0,0,1,3.2,3.11l2.76,4.49,35-20.2-2.76-4.5a9,9,0,0,0-3.2-3.11l-20.81-12a9.1,9.1,0,0,0-6.75-.95l-1.48.37Z"/><polygon class="cls-3" points="162.5 145.01 163.93 144.64 198.98 124.43 197.5 124.8 162.5 145.01"/><polygon class="cls-3" points="194.74 160.72 197.5 165.21 232.5 145.01 229.74 140.51 194.74 160.72"/><polygon class="cls-4" points="232.5 157.09 197.5 177.29 197.5 165.21 232.5 145.01 232.5 157.09"/><polygon class="cls-5" points="162.5 171.26 197.5 191.47 197.5 177.29 162.5 157.09 162.5 171.26"/><polygon class="cls-6" points="232.5 171.26 197.5 191.47 197.5 177.29 232.5 157.09 232.5 171.26"/><polygon class="cls-7" points="162.5 179.17 197.5 199.38 197.5 191.47 162.5 171.26 162.5 179.17"/><polygon class="cls-8" points="232.5 179.17 197.5 199.38 197.5 191.47 232.5 171.26 232.5 179.17"/><polygon class="cls-1" points="127.5 177.29 162.5 197.5 162.5 185.42 159.51 178.4 134.04 163.18 127.5 165.21 127.5 177.29"/><path class="cls-2" d="M127.5,165.21l1.43-.36a9.15,9.15,0,0,1,6.79.94l20.82,12a9.11,9.11,0,0,1,3.2,3.12l2.76,4.49,35-20.21-2.76-4.49a9.11,9.11,0,0,0-3.2-3.12l-20.81-12a9.1,9.1,0,0,0-6.75-1l-1.48.37Z"/><polygon class="cls-3" points="127.5 165.21 128.93 164.85 163.98 144.64 162.5 145.01 127.5 165.21"/><polygon class="cls-3" points="159.74 180.93 162.5 185.42 197.5 165.21 194.74 160.72 159.74 180.93"/><polygon class="cls-4" points="197.5 177.29 162.5 197.5 162.5 185.42 197.5 165.21 197.5 177.29"/><polygon class="cls-5" points="127.5 191.47 162.5 211.68 162.5 197.5 127.5 177.29 127.5 191.47"/><polygon class="cls-6" points="197.5 191.47 162.5 211.68 162.5 197.5 197.5 177.29 197.5 191.47"/><polygon class="cls-7" points="127.5 199.38 162.5 219.59 162.5 211.68 127.5 191.47 127.5 199.38"/><polygon class="cls-8" points="197.5 199.38 162.5 219.59 162.5 211.68 197.5 191.47 197.5 199.38"/><polygon class="cls-1" points="92.5 197.5 127.5 217.71 127.5 205.63 124.51 198.6 99.04 183.39 92.5 185.42 92.5 197.5"/><path class="cls-2" d="M92.5,185.42l1.43-.36a9.1,9.1,0,0,1,6.79.94l20.82,12a9.11,9.11,0,0,1,3.2,3.12l2.76,4.49,35-20.21-2.76-4.49a9.11,9.11,0,0,0-3.2-3.12l-20.81-12a9.1,9.1,0,0,0-6.75-1l-1.48.36Z"/><polygon class="cls-3" points="92.5 185.42 93.93 185.06 128.98 164.85 127.5 165.21 92.5 185.42"/><polygon class="cls-3" points="124.74 201.14 127.5 205.63 162.5 185.42 159.74 180.93 124.74 201.14"/><polygon class="cls-4" points="162.5 197.5 127.5 217.71 127.5 205.63 162.5 185.42 162.5 197.5"/><polygon class="cls-5" points="92.5 211.68 127.5 231.88 127.5 217.71 92.5 197.5 92.5 211.68"/><polygon class="cls-6" points="162.5 211.68 127.5 231.88 127.5 217.71 162.5 197.5 162.5 211.68"/><polygon class="cls-7" points="92.5 219.59 127.5 239.79 127.5 231.88 92.5 211.68 92.5 219.59"/><polygon class="cls-8" points="162.5 219.59 127.5 239.79 127.5 231.88 162.5 211.68 162.5 219.59"/><polygon class="cls-1" points="232.5 157.09 267.5 177.29 267.5 165.21 264.51 158.19 239.04 142.97 232.5 145 232.5 157.09"/><path class="cls-2" d="M232.5,145l1.43-.37a9.15,9.15,0,0,1,6.79.94l20.82,12a9,9,0,0,1,3.2,3.11l2.76,4.49,35-20.2-2.76-4.5a9.1,9.1,0,0,0-3.21-3.11l-20.81-12a9.07,9.07,0,0,0-6.74-.95l-1.48.37Z"/><polygon class="cls-3" points="232.5 145 233.93 144.64 268.98 124.43 267.5 124.8 232.5 145"/><polygon class="cls-3" points="264.74 160.72 267.5 165.21 302.5 145 299.74 140.51 264.74 160.72"/><polygon class="cls-4" points="302.5 157.09 267.5 177.29 267.5 165.21 302.5 145 302.5 157.09"/><polygon class="cls-5" points="232.5 171.26 267.5 191.47 267.5 177.29 232.5 157.09 232.5 171.26"/><polygon class="cls-6" points="302.5 171.26 267.5 191.47 267.5 177.29 302.5 157.09 302.5 171.26"/><polygon class="cls-7" points="232.5 179.17 267.5 199.38 267.5 191.47 232.5 171.26 232.5 179.17"/><polygon class="cls-8" points="302.5 179.17 267.5 199.38 267.5 191.47 302.5 171.26 302.5 179.17"/><polygon class="cls-1" points="197.5 177.29 232.5 197.5 232.5 185.42 229.51 178.4 204.04 163.18 197.5 165.21 197.5 177.29"/><path class="cls-2" d="M197.5,165.21l1.43-.36a9.15,9.15,0,0,1,6.79.94l20.82,12a9.11,9.11,0,0,1,3.2,3.12l2.76,4.49,35-20.21-2.76-4.49a9.22,9.22,0,0,0-3.21-3.12l-20.81-12a9.07,9.07,0,0,0-6.74-1l-1.48.37Z"/><polygon class="cls-3" points="197.5 165.21 198.93 164.85 233.98 144.64 232.5 145 197.5 165.21"/><polygon class="cls-3" points="229.74 180.93 232.5 185.42 267.5 165.21 264.74 160.72 229.74 180.93"/><polygon class="cls-4" points="267.5 177.29 232.5 197.5 232.5 185.42 267.5 165.21 267.5 177.29"/><polygon class="cls-5" points="197.5 191.47 232.5 211.68 232.5 197.5 197.5 177.29 197.5 191.47"/><polygon class="cls-6" points="267.5 191.47 232.5 211.68 232.5 197.5 267.5 177.29 267.5 191.47"/><polygon class="cls-7" points="197.5 199.38 232.5 219.59 232.5 211.68 197.5 191.47 197.5 199.38"/><polygon class="cls-8" points="267.5 199.38 232.5 219.59 232.5 211.68 267.5 191.47 267.5 199.38"/><polygon class="cls-1" points="162.5 197.5 197.5 217.71 197.5 205.63 194.51 198.6 169.04 183.39 162.5 185.42 162.5 197.5"/><path class="cls-2" d="M162.5,185.42l1.43-.36a9.1,9.1,0,0,1,6.79.94l20.82,12a9.11,9.11,0,0,1,3.2,3.12l2.76,4.49,35-20.21-2.76-4.49a9.22,9.22,0,0,0-3.21-3.12l-20.81-12a9.07,9.07,0,0,0-6.74-1l-1.48.36Z"/><polygon class="cls-3" points="162.5 185.42 163.93 185.06 198.98 164.84 197.5 165.21 162.5 185.42"/><polygon class="cls-3" points="194.74 201.14 197.5 205.63 232.5 185.42 229.74 180.93 194.74 201.14"/><polygon class="cls-4" points="232.5 197.5 197.5 217.71 197.5 205.63 232.5 185.42 232.5 197.5"/><polygon class="cls-5" points="162.5 211.68 197.5 231.88 197.5 217.71 162.5 197.5 162.5 211.68"/><polygon class="cls-6" points="232.5 211.68 197.5 231.88 197.5 217.71 232.5 197.5 232.5 211.68"/><polygon class="cls-7" points="162.5 219.59 197.5 239.79 197.5 231.88 162.5 211.68 162.5 219.59"/><polygon class="cls-8" points="232.5 219.59 197.5 239.79 197.5 231.88 232.5 211.68 232.5 219.59"/><polygon class="cls-1" points="127.5 217.71 162.5 237.91 162.5 225.83 159.51 218.81 134.04 203.59 127.5 205.63 127.5 217.71"/><path class="cls-2" d="M127.5,205.63l1.43-.37a9.11,9.11,0,0,1,6.79,1l20.82,12a9.08,9.08,0,0,1,3.2,3.11l2.76,4.49,35-20.2-2.76-4.5a9.19,9.19,0,0,0-3.21-3.11l-20.81-12a9.12,9.12,0,0,0-6.74-.95l-1.48.37Z"/><polygon class="cls-3" points="127.5 205.63 128.93 205.26 163.98 185.05 162.5 185.42 127.5 205.63"/><polygon class="cls-3" points="159.74 221.34 162.5 225.83 197.5 205.63 194.74 201.13 159.74 221.34"/><polygon class="cls-4" points="197.5 217.71 162.5 237.91 162.5 225.83 197.5 205.63 197.5 217.71"/><polygon class="cls-5" points="127.5 231.88 162.5 252.09 162.5 237.91 127.5 217.71 127.5 231.88"/><polygon class="cls-6" points="197.5 231.88 162.5 252.09 162.5 237.91 197.5 217.71 197.5 231.88"/><polygon class="cls-7" points="127.5 239.79 162.5 260 162.5 252.09 127.5 231.88 127.5 239.79"/><polygon class="cls-8" points="197.5 239.79 162.5 260 162.5 252.09 197.5 231.88 197.5 239.79"/></svg>